<?xml version="1.0" encoding="utf-8"?>
<!-- Generator: Adobe Illustrator 19.1.1, SVG Export Plug-In . SVG Version: 6.00 Build 0)  -->
<svg version="1.1"  xmlns="http://www.w3.org/2000/svg" xmlns:xlink="http://www.w3.org/1999/xlink" x="0px" y="0px"
	 viewBox="0 0 48 48" enable-background="new 0 0 48 48" xml:space="preserve">
<path fill="#CFD8DC" d="M38,25v-7c0-6.1-4.9-11-11-11h-1v18H38z"/>
<path fill="#00BCD4" d="M26,25V7h-1c-6.1,0-11,4.9-11,11v7H26z"/>
<path fill="#00838F" d="M14,24v10c0.2,12,11,12,11,12h2c0,0,11,0,11-12V24H14z"/>
<g>
	<path fill="none" stroke="#B2EBF2" stroke-width="2" d="M18,7c-3,0-5,3-5,5"/>
	<path fill="none" stroke="#B2EBF2" stroke-width="2" d="M18,3c-5,0-9,4-9,9"/>
</g>
<path fill="#37474F" d="M24,14c0-1.1,0.9-2,2-2l0,0c1.1,0,2,0.9,2,2v5c0,1.1-0.9,2-2,2l0,0c-1.1,0-2-0.9-2-2V14z"/>
</svg>
